<svg xmlns="http://www.w3.org/2000/svg" viewBox="0 0 512 512">
  <defs>
    <linearGradient id="gA" x1="0" x2="1" y1="0" y2="1">
      <stop offset="0%" stop-color="#b8e1f2"/>
      <stop offset="100%" stop-color="#9d8dd6"/>
    </linearGradient>
  </defs>
  <rect width="512" height="512" rx="96" fill="url(#gA)"/>
  <!-- Dokument -->
  <g transform="translate(128,88)">
    <path d="M0 24 q0 -24 24 -24 h160 l72 72 v280 q0 24 -24 24 h-208 q-24 0 -24 -24 z" fill="#ffffff"/>
    <path d="M184 0 v48 q0 24 24 24 h48" fill="none" stroke="#e5e3ee" stroke-width="6"/>
    <rect x="40" y="120" width="176" height="12" rx="6" fill="#cfcadf"/>
    <rect x="40" y="160" width="144" height="12" rx="6" fill="#cfcadf"/>
    <rect x="40" y="200" width="176" height="12" rx="6" fill="#cfcadf"/>
    <rect x="40" y="240" width="112" height="12" rx="6" fill="#cfcadf"/>
    <!-- Summenzeile -->
    <rect x="40" y="304" width="176" height="20" rx="10" fill="#8a7dd1"/>
  </g>
  <!-- Stern -->
  <path d="M384 120 l12.8 25.6 28.4 4 -20.8 20 5.2 28 -25.6 -13.6 -25.6 13.6 5.2 -28 -20.8 -20 28.4 -4 z"
        fill="#ffffff" stroke="#7d69c9" stroke-width="6" stroke-linejoin="round"/>
</svg>
